HIERARCHY
ROOT Hips
{
	OFFSET 0.000000 0.000000 0.000000
	CHANNELS 6 Xposition Yposition Zposition Xrotation Yrotation Zrotation
	JOINT LeftUpLeg_virtual
	{
		OFFSET 0.000000 0.000000 0.000000
		CHANNELS 3 Xrotation Yrotation Zrotation
		JOINT LeftUpLeg
		{
			OFFSET 13.026900 -6.336304 -1.092800
			CHANNELS 3 Xrotation Yrotation Zrotation
			JOINT LeftLeg
			{
				OFFSET 0.524474 -46.096886 9.782700
				CHANNELS 3 Xrotation Yrotation Zrotation
				JOINT LeftFoot
				{
					OFFSET -0.524474 -53.427422 -12.948200
					CHANNELS 3 Xrotation Yrotation Zrotation
					JOINT LeftToeBase
					{
						OFFSET 0.192200 -14.009700 16.364100
						CHANNELS 3 Xrotation Yrotation Zrotation
						JOINT LeftToe_End
						{
							OFFSET -1.784700 -0.561700 9.474800
							CHANNELS 3 Xrotation Yrotation Zrotation
							End Site
							{
								OFFSET 0 0 0
							}
						}
					}
				}
			}
		}
	}
	JOINT RightUpLeg_virtual
	{
		OFFSET 0.000000 0.000000 0.000000
		CHANNELS 3 Xrotation Yrotation Zrotation
		JOINT RightUpLeg
		{
			OFFSET -12.883000 -6.336304 -1.092800
			CHANNELS 3 Xrotation Yrotation Zrotation
			JOINT RightLeg
			{
				OFFSET -0.524587 -46.096825 9.782800
				CHANNELS 3 Xrotation Yrotation Zrotation
				JOINT RightFoot
				{
					OFFSET 0.524587 -53.427383 -12.948300
					CHANNELS 3 Xrotation Yrotation Zrotation
					JOINT RightToeBase
					{
						OFFSET -0.192200 -14.009700 16.364100
						CHANNELS 3 Xrotation Yrotation Zrotation
						JOINT RightToe_End
						{
							OFFSET 1.784700 -0.561700 9.474800
							CHANNELS 3 Xrotation Yrotation Zrotation
							End Site
							{
								OFFSET 0 0 0
							}
						}
					}
				}
			}
		}
	}
	JOINT Spine_virtual
	{
		OFFSET 0.000000 0.000000 0.000000
		CHANNELS 3 Xrotation Yrotation Zrotation
		JOINT Spine
		{
			OFFSET 0.072000 7.257294 -0.789700
			CHANNELS 3 Xrotation Yrotation Zrotation
			JOINT Spine1
			{
				OFFSET 0.000000 12.508769 -0.658067
				CHANNELS 3 Xrotation Yrotation Zrotation
				JOINT Spine1_split
				{
					OFFSET 0.000000 12.508769 -0.658067
					CHANNELS 3 Xrotation Yrotation Zrotation
					JOINT Spine2
					{
						OFFSET 0.000000 12.508769 -0.658067
						CHANNELS 3 Xrotation Yrotation Zrotation
						JOINT Neck_virtual
						{
							OFFSET 0.000000 0.000000 0.000000
							CHANNELS 3 Xrotation Yrotation Zrotation
							JOINT Neck
							{
								OFFSET 0.000000 14.033295 7.520400
								CHANNELS 3 Xrotation Yrotation Zrotation
								JOINT Head
								{
									OFFSET 0.000000 8.198502 5.703100
									CHANNELS 3 Xrotation Yrotation Zrotation
									JOINT HeadTop_End
									{
										OFFSET 0.000000 17.760803 13.332701
										CHANNELS 3 Xrotation Yrotation Zrotation
										End Site
										{
											OFFSET 0 0 0
										}
									}
								}
							}
						}
						JOINT LeftShoulder_virtual
						{
							OFFSET 0.000000 0.000000 0.000000
							CHANNELS 3 Xrotation Yrotation Zrotation
							JOINT LeftShoulder
							{
								OFFSET 6.292450 5.785301 -0.669000
								CHANNELS 3 Xrotation Yrotation Zrotation
								JOINT LeftShoulder_split
								{
									OFFSET 6.292450 5.785301 -0.669000
									CHANNELS 3 Xrotation Yrotation Zrotation
									JOINT LeftArm
									{
										OFFSET 13.907140 -6.093903 1.965100
										CHANNELS 3 Xrotation Yrotation Zrotation
										JOINT LeftForeArm
										{
											OFFSET 34.140198 0.000000 0.000000
											CHANNELS 3 Xrotation Yrotation Zrotation
											JOINT LeftHand
											{
												OFFSET 40.960209 0.000000 0.000000
												CHANNELS 3 Xrotation Yrotation Zrotation
												End Site
												{
													OFFSET 0 0 0
												}
											}
										}
									}
								}
							}
						}
						JOINT RightShoulder_virtual
						{
							OFFSET 0.000000 0.000000 0.000000
							CHANNELS 3 Xrotation Yrotation Zrotation
							JOINT RightShoulder
							{
								OFFSET -6.292450 5.785301 -0.669000
								CHANNELS 3 Xrotation Yrotation Zrotation
								JOINT RightShoulder_split
								{
									OFFSET -6.292450 5.785301 -0.669000
									CHANNELS 3 Xrotation Yrotation Zrotation
									JOINT RightArm
									{
										OFFSET -13.907140 -6.093903 1.965100
										CHANNELS 3 Xrotation Yrotation Zrotation
										JOINT RightForeArm
										{
											OFFSET -34.140198 0.000000 0.000000
											CHANNELS 3 Xrotation Yrotation Zrotation
											JOINT RightHand
											{
												OFFSET -40.960209 0.000000 0.000000
												CHANNELS 3 Xrotation Yrotation Zrotation
												End Site
												{
													OFFSET 0 0 0
												}
											}
										}
									}
								}
							}
						}
					}
				}
			}
		}
	}
}
MOTION
Frames: 7
Frame Time: 0.03333333
4.583340 305.789429 -19.167667 0.000000 0.000000 0.000000 -10.256303 18.426059 13.032566 -16.278602 37.273558 9.840129 0.860535 -14.358861 -2.746847 16.716031 0.375004 -10.203044 -1.181435 -1.112758 3.762087 0.000000 0.000000 0.000000 -6.269684 11.253981 11.357265 6.614727 3.730325 -4.744744 -14.799017 12.249632 3.188856 -9.779933 3.771061 4.858153 2.570595 -0.279432 -7.580398 0.000000 0.000000 0.000000 -3.954490 17.279839 10.580594 -0.516218 -4.833852 2.606975 9.246921 1.585401 3.680857 0.138501 0.404092 -0.096200 0.000000 0.000000 0.000000 10.741039 4.585181 3.059670 1.198904 0.155739 -11.333938 -16.916845 -40.653641 -31.921507 0.000000 0.000000 0.000000 9.537498 3.263650 2.123542 0.651004 7.762163 -4.640223 10.699355 -7.446658 0.668911 10.515192 -1.331854 -56.450438 4.417494 -38.472301 -2.679086 0.000000 0.000000 0.000000 10.128140 3.290080 3.216610 -4.653240 3.954264 7.476530 5.914116 1.333449 2.172305 3.182273 5.862904 50.042597 -11.400183 35.389341 10.586067 0.000000 0.000000 0.000000 
4.476263 305.663330 -19.762196 0.000000 0.000000 0.000000 -10.349779 18.789079 13.019229 -16.299816 36.912781 9.930179 1.172257 -14.186766 -2.644273 16.520351 0.506286 -10.209737 -1.044305 -1.151591 3.804998 0.000000 0.000000 0.000000 -6.413515 11.681882 11.283497 6.365968 3.447320 -4.535164 -14.710156 12.180037 3.126459 -9.780966 3.825451 4.594168 2.264524 -0.241797 -7.654630 0.000000 0.000000 0.000000 -4.100367 17.331508 10.634184 -0.592058 -4.835784 2.683971 9.203065 1.600761 3.666501 0.097025 0.363338 -0.091981 0.000000 0.000000 0.000000 10.655763 4.605467 2.995178 0.914814 0.170201 -11.397945 -16.758040 -40.160904 -31.685067 0.000000 0.000000 0.000000 9.529627 3.246365 2.122108 0.625735 7.491567 -4.348066 10.289661 -6.745536 0.337911 9.823357 -1.387844 -56.311577 4.419083 -38.340044 -2.610903 0.000000 0.000000 0.000000 10.138145 3.280541 3.184320 -4.653451 3.720398 7.206783 6.174218 1.294555 1.905042 3.367363 6.494315 49.692768 -11.729749 36.432489 10.892226 0.000000 0.000000 0.000000 
4.279352 305.172058 -20.167217 0.000000 0.000000 0.000000 -10.237883 19.241408 12.889776 -16.552373 36.857852 9.991193 1.508188 -13.567714 -2.503626 15.551227 1.254287 -9.712889 -1.177248 -1.182999 3.865225 0.000000 0.000000 0.000000 -6.286755 12.145535 11.124782 5.753657 2.796143 -4.385585 -13.890470 12.119196 3.088815 -10.061479 4.112163 4.598606 1.687076 -0.140020 -7.856724 0.000000 0.000000 0.000000 -3.844077 17.717757 10.499308 -0.721504 -4.767379 2.796587 9.104365 1.521772 3.663600 0.067133 0.275432 -0.107208 0.000000 0.000000 0.000000 10.562228 4.568233 2.971033 0.281251 0.339029 -11.455981 -16.492089 -39.628163 -31.325498 0.000000 0.000000 0.000000 9.457103 3.169198 2.203841 0.601568 7.389695 -4.152239 9.976109 -6.115928 0.041571 9.137360 -1.635733 -56.156152 4.473613 -38.499731 -2.368884 0.000000 0.000000 0.000000 10.086081 3.168350 3.161254 -4.623892 3.541265 6.699376 6.444494 1.000406 1.953331 4.730486 8.528123 49.121553 -11.968405 37.779904 10.936257 0.000000 0.000000 0.000000 
4.056381 304.357788 -20.429203 0.000000 0.000000 0.000000 -9.921681 19.643370 12.653875 -17.169485 37.064493 9.997496 2.199523 -12.831141 -2.307560 14.180507 2.190612 -8.901053 -1.506248 -1.197358 3.922143 0.000000 0.000000 0.000000 -5.941691 12.679673 10.901817 4.875999 1.809082 -4.330154 -12.686385 12.016078 3.057053 -10.829614 4.515505 4.789171 1.375166 -0.018733 -8.129766 0.000000 0.000000 0.000000 -3.178051 18.377327 10.190051 -0.884642 -4.631018 2.865882 8.989331 1.342138 3.673248 0.067937 0.146241 -0.118698 0.000000 0.000000 0.000000 10.510787 4.471319 2.983752 -0.607612 0.642770 -11.462939 -16.221009 -39.044800 -30.816444 0.000000 0.000000 0.000000 9.341074 3.042810 2.346626 0.591858 7.450048 -4.102498 9.780711 -5.797987 -0.037528 8.461980 -2.241967 -55.899235 4.497152 -38.862062 -2.048512 0.000000 0.000000 0.000000 9.967284 2.960862 3.149797 -4.580792 3.455865 6.110341 6.655963 0.447536 2.158610 7.014315 11.531585 48.246076 -12.198586 39.517460 10.791363 0.000000 0.000000 0.000000 
3.863778 303.428040 -20.521214 0.000000 0.000000 0.000000 -9.391463 20.009261 12.358969 -18.338728 37.399838 10.058830 3.667313 -12.420850 -2.032127 12.920728 2.768279 -8.090600 -1.777831 -1.181080 3.954212 0.000000 0.000000 0.000000 -5.469571 13.206102 10.661105 3.999915 0.664310 -4.322370 -11.554100 11.750092 2.999268 -12.035543 4.808671 5.001256 1.528297 0.081664 -8.339350 0.000000 0.000000 0.000000 -2.239053 19.216249 9.771996 -1.036769 -4.443816 2.850198 8.897025 1.088938 3.714136 0.081867 0.024434 -0.107762 0.000000 0.000000 0.000000 10.543966 4.314952 3.038594 -1.653375 1.008426 -11.367748 -16.155610 -38.489933 -30.227579 0.000000 0.000000 0.000000 9.223919 2.885200 2.531573 0.617441 7.698356 -4.178338 9.676763 -5.601751 -0.101799 7.849171 -3.422016 -55.366698 4.307887 -39.468146 -1.765044 0.000000 0.000000 0.000000 9.803340 2.680182 3.167057 -4.545271 3.493362 5.575220 6.587607 -0.512567 2.352260 10.048105 14.995201 46.852185 -12.613908 41.959676 10.665764 0.000000 0.000000 0.000000 
3.784838 302.554993 -20.443958 0.000000 0.000000 0.000000 -8.720901 20.413275 12.037680 -20.201155 37.773289 10.205992 5.989608 -12.475551 -1.660173 12.149701 2.639200 -7.353821 -1.803602 -1.134214 4.001626 0.000000 0.000000 0.000000 -4.785674 13.799971 10.388713 3.303661 -0.455123 -4.282114 -10.909655 11.269278 2.915074 -13.292076 4.788228 5.248797 1.992078 0.142916 -8.314925 0.000000 0.000000 0.000000 -1.163146 20.076738 9.268317 -1.173489 -4.238920 2.760327 8.876189 0.800625 3.785331 0.111254 -0.079977 -0.086879 0.000000 0.000000 0.000000 10.666647 4.114024 3.128323 -2.750800 1.389032 -11.152716 -16.528564 -38.016594 -29.627694 0.000000 0.000000 0.000000 9.144253 2.711099 2.735091 0.691118 8.098767 -4.346393 9.404690 -5.523936 -0.129860 7.268715 -5.064939 -54.436980 3.830537 -40.351084 -1.573801 0.000000 0.000000 0.000000 9.640779 2.350377 3.213670 -4.533315 3.675417 5.162931 6.536076 -1.374333 2.520052 13.539497 18.268103 44.760999 -13.516775 45.519826 10.932132 0.000000 0.000000 0.000000 
3.824584 301.936584 -20.177685 0.000000 0.000000 0.000000 -7.928913 20.917968 11.655969 -22.591462 37.939727 10.435910 8.727487 -12.977029 -1.217365 12.041609 1.735697 -6.748400 -1.539422 -1.087103 4.086982 0.000000 0.000000 0.000000 -3.923816 14.388733 10.070328 2.837506 -1.312944 -4.136964 -11.083820 10.647818 2.839911 -13.989149 4.492901 5.661870 1.985511 0.240854 -7.891621 0.000000 0.000000 0.000000 -0.093364 20.947015 8.681921 -1.260897 -4.051434 2.622564 8.959380 0.510038 3.860952 0.139294 -0.139298 -0.058863 0.000000 0.000000 0.000000 10.883401 3.878457 3.251161 -3.792779 1.743444 -10.845675 -17.315687 -37.596592 -29.029281 0.000000 0.000000 0.000000 9.106658 2.533575 2.914761 0.797264 8.630026 -4.546620 8.963623 -5.568383 -0.021383 6.814319 -6.888002 -53.155093 3.074614 -41.607477 -1.450147 0.000000 0.000000 0.000000 9.513827 1.992548 3.281865 -4.549614 3.911209 4.879339 6.816987 -1.760599 2.526504 17.164018 20.983618 42.094271 -15.157443 50.257102 11.932323 0.000000 0.000000 0.000000 
